<?xml version="1.0" encoding="utf-8"?>
<!-- Generator: Adobe Illustrator 16.0.0, SVG Export Plug-In . SVG Version: 6.00 Build 0)  -->
<!DOCTYPE svg PUBLIC "-//W3C//DTD SVG 1.1//EN" "http://www.w3.org/Graphics/SVG/1.1/DTD/svg11.dtd">
<svg version="1.1" id="Calque_1" xmlns="http://www.w3.org/2000/svg" xmlns:xlink="http://www.w3.org/1999/xlink" x="0px" y="0px"
	 width="60px" height="60px" viewBox="0 0 60 60" enable-background="new 0 0 60 60" xml:space="preserve">
<path fill="#323232" d="M56.454,25.024c2.22-2.64,3.546-5.997,3.546-9.66C60,6.878,52.85,0,44.032,0
	c-7.187,0-13.243,4.572-15.244,10.861c10.606,1.566,19.271,8.733,22.487,18.185c0.488-0.24,0.968-0.498,1.428-0.784
	c2.248,1.478,4.681,1.427,6.1,1.214c0.406-0.052,0.516-0.628,0.176-0.871C57.613,27.624,56.868,26.238,56.454,25.024z"/>
<path fill="#323232" d="M24.412,55.518c-3.939,0-7.778-1.047-11.071-3.014l-1.078-0.652L11.2,52.518
	c-1.095,0.684-2.315,1.138-3.653,1.334c0.618-0.894,1.122-1.91,1.496-3l0.446-1.285l-0.878-1c-2.877-3.289-4.398-7.239-4.398-11.436
	c0-10.132,9.057-18.356,20.186-18.356c11.126,0,20.197,8.255,20.197,18.388C44.596,47.293,35.538,55.518,24.412,55.518
	 M24.412,14.339C10.954,14.339,0,24.576,0,37.162c0,4.783,1.623,9.465,4.585,13.326c-0.545,1.061-1.292,1.908-2.198,2.546
	c-0.964,0.666-1.426,1.86-1.18,3.042c0.244,1.166,1.15,2.045,2.286,2.212c0.776,0.121,1.581,0.166,2.372,0.166
	c2.344,0,4.514-0.499,6.44-1.468C15.987,58.955,20.156,60,24.412,60c13.456,0,24.412-10.238,24.412-22.824
	C48.824,24.592,37.868,14.339,24.412,14.339"/>
<path fill="#323232" d="M11.192,31.699C9.731,31.699,9,33.234,9,36.303c0,3.057,0.731,4.584,2.192,4.584
	c1.44,0,2.16-1.527,2.16-4.584C13.353,33.234,12.633,31.699,11.192,31.699 M12.817,45.059l-1.657-1.752
	c-0.747,0-1.419-0.154-2.014-0.463c-0.597-0.308-1.103-0.761-1.521-1.357c-0.416-0.596-0.735-1.327-0.958-2.192
	c-0.222-0.864-0.332-1.86-0.332-2.989c0-1.115,0.104-2.104,0.316-2.97c0.21-0.865,0.525-1.601,0.941-2.204
	c0.417-0.602,0.926-1.062,1.526-1.377c0.603-0.314,1.293-0.472,2.072-0.472c0.78,0,1.473,0.161,2.079,0.481
	c0.606,0.321,1.116,0.785,1.528,1.387c0.41,0.604,0.722,1.336,0.934,2.203c0.21,0.865,0.315,1.85,0.315,2.949
	c0,0.748-0.052,1.452-0.152,2.115c-0.104,0.662-0.256,1.258-0.456,1.79s-0.444,0.981-0.729,1.347
	c-0.288,0.367-0.617,0.631-0.985,0.787l0.422,0.355c0.737,0.615,1.42,0.924,2.048,0.924c-0.021,0.67-0.187,1.21-0.495,1.623
	c-0.308,0.413-0.738,0.62-1.291,0.62C13.878,45.864,13.347,45.594,12.817,45.059"/>
<path fill="#323232" d="M26.495,29.577v8.478c0,1.678-0.378,2.973-1.136,3.885c-0.755,0.912-1.838,1.365-3.243,1.365
	c-1.403,0-2.487-0.453-3.251-1.365c-0.761-0.912-1.142-2.207-1.142-3.885v-8.478l0.113-0.139h0.957c1.031,0,1.544,0.67,1.544,2.007
	v6.647c0,0.918,0.135,1.601,0.407,2.046c0.27,0.446,0.731,0.67,1.379,0.67c0.65,0,1.11-0.224,1.382-0.67
	c0.271-0.445,0.406-1.128,0.406-2.046v-8.517c0.333-0.079,0.764-0.119,1.293-0.119C25.721,29.458,26.15,29.498,26.495,29.577"/>
<path fill="#323232" d="M28.851,43.011V29.577c0.337-0.079,0.769-0.119,1.3-0.119c0.529,0,0.968,0.04,1.316,0.119v13.434
	c-0.349,0.08-0.787,0.117-1.316,0.117C29.619,43.128,29.188,43.091,28.851,43.011"/>
<path fill="#323232" d="M33.659,39.943l3.606-5.985c0.367-0.642,0.807-1.288,1.314-1.942l-0.049-0.059
	c-0.77,0.116-1.608,0.177-2.518,0.177h-2.324c-0.064-0.302-0.098-0.666-0.098-1.092s0.061-0.913,0.18-1.465h7.196
	c0.238,1.087,0.357,1.778,0.357,2.075c0,0.295-0.099,0.611-0.294,0.953l-3.621,6.002c-0.369,0.632-0.791,1.246-1.268,1.846
	l0.047,0.061c1.086-0.093,1.896-0.14,2.438-0.14h0.908c0.649,0,1.257-0.149,1.819-0.45c0.119,0.459,0.179,0.947,0.179,1.462
	c0,0.517-0.152,0.916-0.462,1.198c-0.311,0.286-0.725,0.43-1.243,0.43h-6.206c-0.193-1.06-0.292-1.742-0.292-2.055
	C33.334,40.648,33.441,40.311,33.659,39.943"/>
</svg>
